<?xml version="1.0" encoding="UTF-8" standalone="no"?><!DOCTYPE svg PUBLIC "-//W3C//DTD SVG 1.1//EN" "http://www.w3.org/Graphics/SVG/1.1/DTD/svg11.dtd"><svg width="25px" height="25px" viewBox="0 0 1000 1000" version="1.1" xmlns="http://www.w3.org/2000/svg" xmlns:xlink="http://www.w3.org/1999/xlink" xml:space="preserve" xmlns:serif="http://www.serif.com/" style="fill-rule:evenodd;clip-rule:evenodd;stroke-linejoin:round;stroke-miterlimit:2;"><path d="M493,305.7c-88.9,0 -161,72.1 -161,161c0,88.9 72.1,161 161,161c88.9,0 161,-72.1 161,-161c0,-88.9 -72,-161 -161,-161Zm-251,161c0,-138.7 112.4,-251 251,-251c138.7,-0 251.1,112.4 251.1,251c0,9.2 -0.5,18.2 -1.4,27.1c-1.9,24.5 16.1,43.2 40.4,43.2c41.3,-0 45.7,-53.2 45.7,-70.3c0,-185.4 -150.3,-335.6 -335.6,-335.6c-185.3,-0 -335.8,150.3 -335.8,335.6c-0,185.4 150.3,335.6 335.6,335.6c98.4,-0 187,-42.4 248.4,-109.9l69,57.9c-77.9,87.1 -191.3,142 -317.4,142c-235.1,-0 -425.7,-190.6 -425.7,-425.7c-0,-235.1 190.6,-425.6 425.7,-425.6c235.1,-0 425.7,190.6 425.7,425.7c0,94.5 -45,171.2 -135.4,171.2c-39.8,-0 -64,-18.2 -77.2,-38.6c-44.2,71.2 -123.1,118.5 -213.1,118.5c-138.6,-0 -251,-112.4 -251,-251.1Zm251,-73.6c40.7,-0 73.7,33 73.7,73.7c0,40.7 -33,73.7 -73.7,73.7c-40.7,-0 -73.7,-33 -73.7,-73.7c0,-40.7 33,-73.7 73.7,-73.7Z" style="fill:#c12126;fill-rule:nonzero;"/></svg>
