<?xml version="1.0" encoding="UTF-8" standalone="no"?><!DOCTYPE svg PUBLIC "-//W3C//DTD SVG 1.1//EN" "http://www.w3.org/Graphics/SVG/1.1/DTD/svg11.dtd"><svg width="25px" height="25px" viewBox="0 0 64 64" version="1.1" xmlns="http://www.w3.org/2000/svg" xmlns:xlink="http://www.w3.org/1999/xlink" xml:space="preserve" xmlns:serif="http://www.serif.com/" style="fill-rule:evenodd;clip-rule:evenodd;"><g><path id="A" d="M63.508,58.092l-0,2.954c-1.351,0 -2.462,1.111 -2.462,2.462l-2.954,-0c0,-1.351 -1.111,-2.462 -2.461,-2.462c-1.351,0 -2.462,1.111 -2.462,2.462l-2.954,-0c0,-1.351 -1.111,-2.462 -2.461,-2.462c-1.35,0 -2.462,1.111 -2.462,2.462l-2.954,-0c0,-1.351 -1.111,-2.462 -2.461,-2.462c-1.35,0 -2.462,1.111 -2.462,2.462l-2.953,-0c-0,-1.351 -1.112,-2.462 -2.462,-2.462c-1.35,0 -2.462,1.111 -2.462,2.462l-2.953,-0c-0,-1.351 -1.112,-2.462 -2.462,-2.462c-1.35,0 -2.461,1.111 -2.461,2.462l-2.954,-0c-0,-1.351 -1.111,-2.462 -2.462,-2.462c-1.35,0 -2.461,1.111 -2.461,2.462l-2.954,-0c-0,-1.351 -1.111,-2.462 -2.462,-2.462c-1.35,0 -2.461,1.111 -2.461,2.462l-2.954,-0c-0,-1.351 -1.111,-2.462 -2.462,-2.462l0,-2.954c1.351,0 2.462,-1.111 2.462,-2.461c-0,-1.351 -1.111,-2.462 -2.462,-2.462l0,-2.954c1.351,0 2.462,-1.111 2.462,-2.461c-0,-1.35 -1.111,-2.462 -2.462,-2.462l0,-2.954c1.351,0 2.462,-1.111 2.462,-2.461c-0,-1.35 -1.111,-2.462 -2.462,-2.462l0,-2.953c1.351,-0 2.462,-1.112 2.462,-2.462c-0,-1.35 -1.111,-2.462 -2.462,-2.462l0,-2.953c1.351,-0 2.462,-1.112 2.462,-2.462c-0,-1.35 -1.111,-2.461 -2.462,-2.461l0,-2.954c1.351,-0 2.462,-1.111 2.462,-2.462c-0,-1.35 -1.111,-2.461 -2.462,-2.461l0,-2.954c1.351,-0 2.462,-1.111 2.462,-2.462c-0,-1.35 -1.111,-2.461 -2.462,-2.461l0,-2.954c1.351,-0 2.462,-1.111 2.462,-2.462l2.954,0c-0,1.351 1.111,2.462 2.461,2.462c1.351,-0 2.462,-1.111 2.462,-2.462l2.954,0c-0,1.351 1.111,2.462 2.461,2.462c1.351,-0 2.462,-1.111 2.462,-2.462l2.954,0c-0,1.351 1.111,2.462 2.461,2.462c1.35,-0 2.462,-1.111 2.462,-2.462l2.953,0c0,1.351 1.112,2.462 2.462,2.462c1.35,-0 2.462,-1.111 2.462,-2.462l2.953,0c0,1.351 1.112,2.462 2.462,2.462c1.35,-0 2.461,-1.111 2.461,-2.462l2.954,0c0,1.351 1.112,2.462 2.462,2.462c1.35,-0 2.461,-1.111 2.461,-2.462l2.954,0c0,1.351 1.111,2.462 2.462,2.462c1.35,-0 2.461,-1.111 2.461,-2.462l2.954,0c0,1.351 1.111,2.462 2.462,2.462l-0,2.954c-1.351,-0 -2.462,1.111 -2.462,2.461c0,1.351 1.111,2.462 2.462,2.462l-0,2.954c-1.351,-0 -2.462,1.111 -2.462,2.461c0,1.351 1.111,2.462 2.462,2.462l-0,2.954c-1.351,-0 -2.462,1.111 -2.462,2.461c0,1.35 1.111,2.462 2.462,2.462l-0,2.953c-1.351,0 -2.462,1.112 -2.462,2.462c0,1.35 1.111,2.462 2.462,2.462l-0,2.953c-1.351,0 -2.462,1.112 -2.462,2.462c0,1.35 1.111,2.461 2.462,2.461l-0,2.954c-1.351,0 -2.462,1.112 -2.462,2.462c0,1.35 1.111,2.461 2.462,2.461l-0,2.954c-1.351,0 -2.462,1.111 -2.462,2.462c0,1.35 1.111,2.461 2.462,2.461Z" style="fill:#f0f0f0;"/><path d="M63.754,57.846l-0,3.446l-0.246,0c-1.216,0 -2.216,1 -2.216,2.216l0,0.246l-3.446,-0l0,-0.246c0,-1.216 -1,-2.216 -2.215,-2.216c-1.216,0 -2.216,1 -2.216,2.216l0,0.246l-3.446,-0l0,-0.246c0,-1.216 -1,-2.216 -2.215,-2.216c-1.215,0 -2.216,1 -2.216,2.216l0,0.246l-3.446,-0l0,-0.246c0,-1.216 -1,-2.216 -2.215,-2.216c-1.215,0 -2.215,1 -2.215,2.216l-0,0.246l-3.447,-0l0,-0.246c0,-1.216 -1,-2.216 -2.215,-2.216c-1.215,0 -2.215,1 -2.215,2.216l-0,0.246l-3.447,-0l0,-0.246c0,-1.216 -1,-2.216 -2.215,-2.216c-1.215,0 -2.215,1 -2.215,2.216l-0,0.246l-3.446,-0l-0,-0.246c-0,-1.216 -1.001,-2.216 -2.216,-2.216c-1.215,0 -2.215,1 -2.215,2.216l-0,0.246l-3.446,-0l-0,-0.246c-0,-1.216 -1,-2.216 -2.216,-2.216c-1.215,0 -2.215,1 -2.215,2.216l-0,0.246l-3.446,-0l-0,-0.246c-0,-1.216 -1,-2.216 -2.216,-2.216l-0.246,0l0,-3.446l0.246,0c1.216,0 2.216,-1 2.216,-2.215c-0,-1.216 -1,-2.216 -2.216,-2.216l-0.246,0l0,-3.446l0.246,0c1.216,0 2.216,-1 2.216,-2.215c-0,-1.215 -1,-2.216 -2.216,-2.216l-0.246,0l0,-3.446l0.246,0c1.216,0 2.216,-1 2.216,-2.215c-0,-1.215 -1,-2.215 -2.216,-2.215l-0.246,-0l0,-3.447l0.246,0c1.216,0 2.216,-1 2.216,-2.215c-0,-1.215 -1,-2.215 -2.216,-2.215l-0.246,-0l0,-3.447l0.246,0c1.216,0 2.216,-1 2.216,-2.215c-0,-1.215 -1,-2.215 -2.216,-2.215l-0.246,-0l0,-3.446l0.246,-0c1.216,-0 2.216,-1.001 2.216,-2.216c-0,-1.215 -1,-2.215 -2.216,-2.215l-0.246,-0l0,-3.446l0.246,-0c1.216,-0 2.216,-1 2.216,-2.216c-0,-1.215 -1,-2.215 -2.216,-2.215l-0.246,-0l0,-3.446l0.246,-0c1.216,-0 2.216,-1 2.216,-2.216l-0,-0.246l3.446,0l-0,0.246c-0,1.216 1,2.216 2.215,2.216c1.216,-0 2.216,-1 2.216,-2.216l-0,-0.246l3.446,0l-0,0.246c-0,1.216 1,2.216 2.215,2.216c1.215,-0 2.216,-1 2.216,-2.216l-0,-0.246l3.446,0l-0,0.246c-0,1.216 1,2.216 2.215,2.216c1.215,-0 2.215,-1 2.215,-2.216l0,-0.246l3.447,0l-0,0.246c-0,1.216 1,2.216 2.215,2.216c1.215,-0 2.215,-1 2.215,-2.216l0,-0.246l3.447,0l-0,0.246c-0,1.216 1,2.216 2.215,2.216c1.215,-0 2.215,-1 2.215,-2.216l0,-0.246l3.446,0l0,0.246c0,1.216 1.001,2.216 2.216,2.216c1.215,-0 2.215,-1 2.215,-2.216l0,-0.246l3.446,0l0,0.246c0,1.216 1,2.216 2.216,2.216c1.215,-0 2.215,-1 2.215,-2.216l0,-0.246l3.446,0l0,0.246c0,1.216 1,2.216 2.216,2.216l0.246,-0l-0,3.446l-0.246,-0c-1.216,-0 -2.216,1 -2.216,2.215c0,1.216 1,2.216 2.216,2.216l0.246,-0l-0,3.446l-0.246,-0c-1.216,-0 -2.216,1 -2.216,2.215c0,1.215 1,2.216 2.216,2.216l0.246,-0l-0,3.446l-0.246,-0c-1.216,-0 -2.216,1 -2.216,2.215c0,1.215 1,2.215 2.216,2.215l0.246,0l-0,3.447l-0.246,-0c-1.216,-0 -2.216,1 -2.216,2.215c0,1.215 1,2.215 2.216,2.215l0.246,0l-0,3.447l-0.246,-0c-1.216,-0 -2.216,1 -2.216,2.215c0,1.215 1,2.215 2.216,2.215l0.246,0l-0,3.446l-0.246,0c-1.216,0 -2.216,1.001 -2.216,2.216c0,1.215 1,2.215 2.216,2.215l0.246,0l-0,3.446l-0.246,0c-1.216,0 -2.216,1 -2.216,2.216c0,1.215 1,2.215 2.216,2.215l0.246,0Z" style="fill:none;stroke:#ccc;stroke-width:0.49px;"/><path d="M63.262,58.328c-1.389,-0.125 -2.466,-1.303 -2.466,-2.697c-0,-1.395 1.077,-2.572 2.466,-2.697l-0,-2.483c-1.389,-0.125 -2.466,-1.303 -2.466,-2.697c-0,-1.394 1.077,-2.572 2.466,-2.697l-0,-2.483c-1.389,-0.125 -2.466,-1.303 -2.466,-2.697c-0,-1.394 1.077,-2.572 2.466,-2.697l-0,-2.483c-1.389,-0.125 -2.466,-1.303 -2.466,-2.697c-0,-1.394 1.077,-2.572 2.466,-2.697l-0,-2.483c-1.389,-0.125 -2.466,-1.303 -2.466,-2.697c-0,-1.394 1.077,-2.572 2.466,-2.697l-0,-2.483c-1.389,-0.125 -2.466,-1.303 -2.466,-2.697c-0,-1.394 1.077,-2.572 2.466,-2.697l-0,-2.483c-1.389,-0.124 -2.466,-1.302 -2.466,-2.697c-0,-1.394 1.077,-2.572 2.466,-2.697l-0,-2.483c-1.296,-0.118 -2.333,-1.155 -2.451,-2.451l-2.483,0c-0.125,1.389 -1.303,2.466 -2.697,2.466c-1.395,0 -2.572,-1.077 -2.697,-2.466l-2.483,0c-0.125,1.389 -1.303,2.466 -2.697,2.466c-1.394,0 -2.572,-1.077 -2.697,-2.466l-2.483,0c-0.125,1.389 -1.303,2.466 -2.697,2.466c-1.394,0 -2.572,-1.077 -2.697,-2.466l-2.483,0c-0.125,1.389 -1.303,2.466 -2.697,2.466c-1.394,0 -2.572,-1.077 -2.697,-2.466l-2.483,0c-0.125,1.389 -1.303,2.466 -2.697,2.466c-1.394,0 -2.572,-1.077 -2.697,-2.466l-2.483,0c-0.125,1.389 -1.303,2.466 -2.697,2.466c-1.394,0 -2.572,-1.077 -2.697,-2.466l-2.483,0c-0.124,1.389 -1.302,2.466 -2.697,2.466c-1.394,0 -2.572,-1.077 -2.697,-2.466l-2.483,0c-0.118,1.296 -1.155,2.333 -2.451,2.451l0,2.483c1.389,0.125 2.466,1.303 2.466,2.697c0,1.395 -1.077,2.573 -2.466,2.697l0,2.483c1.389,0.125 2.466,1.303 2.466,2.697c0,1.394 -1.077,2.572 -2.466,2.697l0,2.483c1.389,0.125 2.466,1.303 2.466,2.697c0,1.394 -1.077,2.572 -2.466,2.697l0,2.483c1.389,0.125 2.466,1.303 2.466,2.697c0,1.394 -1.077,2.572 -2.466,2.697l0,2.483c1.389,0.125 2.466,1.303 2.466,2.697c0,1.394 -1.077,2.572 -2.466,2.697l0,2.483c1.389,0.125 2.466,1.303 2.466,2.697c0,1.394 -1.077,2.572 -2.466,2.697l0,2.483c1.389,0.125 2.466,1.302 2.466,2.697c0,1.394 -1.077,2.572 -2.466,2.697l0,2.483c1.296,0.118 2.333,1.155 2.451,2.451l2.483,-0c0.125,-1.389 1.303,-2.466 2.697,-2.466c1.395,-0 2.573,1.077 2.697,2.466l2.483,-0c0.125,-1.389 1.303,-2.466 2.697,-2.466c1.394,-0 2.572,1.077 2.697,2.466l2.483,-0c0.125,-1.389 1.303,-2.466 2.697,-2.466c1.394,-0 2.572,1.077 2.697,2.466l2.483,-0c0.125,-1.389 1.303,-2.466 2.697,-2.466c1.394,-0 2.572,1.077 2.697,2.466l2.483,-0c0.125,-1.389 1.303,-2.466 2.697,-2.466c1.394,-0 2.572,1.077 2.697,2.466l2.483,-0c0.125,-1.389 1.303,-2.466 2.697,-2.466c1.394,-0 2.572,1.077 2.697,2.466l2.483,-0c0.125,-1.389 1.302,-2.466 2.697,-2.466c1.394,-0 2.572,1.077 2.697,2.466l2.483,-0c0.118,-1.296 1.155,-2.333 2.451,-2.451l-0,-2.483Z" style="fill:none;stroke:#fff;stroke-width:0.49px;"/><path id="B" d="M55.631,10.369c-0,-1.104 -0.896,-2 -2,-2l-43.262,0c-1.104,0 -2,0.896 -2,2l0,43.262c0,1.104 0.896,2 2,2l43.262,-0c1.104,-0 2,-0.896 2,-2l-0,-43.262Z" style="fill:#fedd00;"/><path d="M55.385,10.615c-0,-1.103 -0.897,-2 -2,-2l-42.77,0c-1.103,0 -2,0.897 -2,2l0,42.77c0,1.103 0.897,2 2,2l42.77,-0c1.103,-0 2,-0.897 2,-2l-0,-42.77Z" style="fill:none;stroke:#d9b500;stroke-width:0.49px;"/><path d="M55.877,10.123c-0,-1.104 -0.896,-2 -2,-2l-43.754,0c-1.104,0 -2,0.896 -2,2l0,43.754c0,1.104 0.896,2 2,2l43.754,-0c1.104,-0 2,-0.896 2,-2l-0,-43.754Z" style="fill:none;stroke:#fff;stroke-width:0.49px;"/><path d="M25.255,42.872l0,-21.555l-3.593,-0l-0,-3.594l12.743,0c7.96,0 9.611,5.25 9.611,8.891c0,2.922 -1.185,5.165 -2.413,6.393c-1.99,1.99 -4.7,2.456 -8.806,2.456l-3.218,-0l-0,7.409l3.768,0l-0,3.594l-11.685,-0l-0,-3.594l3.593,0Zm4.319,-10.881l3.594,0c5.292,0 6.435,-2.455 6.435,-5.419c0,-3.387 -1.905,-5.25 -5.08,-5.25l-4.944,-0l-0.005,10.669Z"/></g></svg>
